<mxfile host="app.diagrams.net" modified="2024-04-18T12:31:22.869Z" agent="Mozilla/5.0 (Windows NT 10.0; Win64; x64) AppleWebKit/537.36 (KHTML, like Gecko) Chrome/123.0.0.0 Safari/537.36 Edg/123.0.0.0" etag="aNl6GpAm1rvwGCdMolo0" version="24.2.5" type="github">
  <diagram id="R2lEEEUBdFMjLlhIrx00" name="Page-1">
    <mxGraphModel dx="1042" dy="569" grid="1" gridSize="10" guides="1" tooltips="1" connect="1" arrows="1" fold="1" page="1" pageScale="1" pageWidth="850" pageHeight="1100" math="0" shadow="0" extFonts="Permanent Marker^https://fonts.googleapis.com/css?family=Permanent+Marker">
      <root>
        <mxCell id="0" />
        <mxCell id="1" parent="0" />
        <mxCell id="xoI1BLcpr9TrfaPX8YL6-6" style="edgeStyle=orthogonalEdgeStyle;rounded=0;orthogonalLoop=1;jettySize=auto;html=1;endArrow=none;endFill=0;curved=1;" edge="1" parent="1" source="xoI1BLcpr9TrfaPX8YL6-1" target="xoI1BLcpr9TrfaPX8YL6-5">
          <mxGeometry relative="1" as="geometry" />
        </mxCell>
        <mxCell id="xoI1BLcpr9TrfaPX8YL6-18" value="n" style="edgeLabel;html=1;align=center;verticalAlign=middle;resizable=0;points=[];" vertex="1" connectable="0" parent="xoI1BLcpr9TrfaPX8YL6-6">
          <mxGeometry x="-0.5467" y="2" relative="1" as="geometry">
            <mxPoint as="offset" />
          </mxGeometry>
        </mxCell>
        <mxCell id="xoI1BLcpr9TrfaPX8YL6-21" value="" style="edgeStyle=orthogonalEdgeStyle;rounded=0;orthogonalLoop=1;jettySize=auto;html=1;curved=1;endArrow=none;endFill=0;" edge="1" parent="1" source="xoI1BLcpr9TrfaPX8YL6-1" target="xoI1BLcpr9TrfaPX8YL6-20">
          <mxGeometry relative="1" as="geometry" />
        </mxCell>
        <mxCell id="xoI1BLcpr9TrfaPX8YL6-1" value="university" style="rounded=0;whiteSpace=wrap;html=1;" vertex="1" parent="1">
          <mxGeometry x="120" y="200" width="120" height="60" as="geometry" />
        </mxCell>
        <mxCell id="xoI1BLcpr9TrfaPX8YL6-7" style="edgeStyle=orthogonalEdgeStyle;rounded=0;orthogonalLoop=1;jettySize=auto;html=1;endArrow=none;endFill=0;curved=1;" edge="1" parent="1" source="xoI1BLcpr9TrfaPX8YL6-2" target="xoI1BLcpr9TrfaPX8YL6-5">
          <mxGeometry relative="1" as="geometry" />
        </mxCell>
        <mxCell id="xoI1BLcpr9TrfaPX8YL6-19" value="m" style="edgeLabel;html=1;align=center;verticalAlign=middle;resizable=0;points=[];" vertex="1" connectable="0" parent="xoI1BLcpr9TrfaPX8YL6-7">
          <mxGeometry x="-0.6576" y="-1" relative="1" as="geometry">
            <mxPoint as="offset" />
          </mxGeometry>
        </mxCell>
        <mxCell id="xoI1BLcpr9TrfaPX8YL6-2" value="executive" style="rounded=0;whiteSpace=wrap;html=1;" vertex="1" parent="1">
          <mxGeometry x="435" y="180" width="120" height="60" as="geometry" />
        </mxCell>
        <mxCell id="xoI1BLcpr9TrfaPX8YL6-53" style="edgeStyle=orthogonalEdgeStyle;rounded=0;orthogonalLoop=1;jettySize=auto;html=1;strokeColor=default;align=center;verticalAlign=middle;fontFamily=Helvetica;fontSize=11;fontColor=default;labelBackgroundColor=default;endArrow=none;endFill=0;curved=1;" edge="1" parent="1" source="xoI1BLcpr9TrfaPX8YL6-3" target="xoI1BLcpr9TrfaPX8YL6-52">
          <mxGeometry relative="1" as="geometry" />
        </mxCell>
        <mxCell id="xoI1BLcpr9TrfaPX8YL6-3" value="company" style="rounded=0;whiteSpace=wrap;html=1;" vertex="1" parent="1">
          <mxGeometry x="425" y="390" width="120" height="60" as="geometry" />
        </mxCell>
        <mxCell id="xoI1BLcpr9TrfaPX8YL6-5" value="毕业" style="rhombus;whiteSpace=wrap;html=1;" vertex="1" parent="1">
          <mxGeometry x="290" y="200" width="80" height="50" as="geometry" />
        </mxCell>
        <mxCell id="xoI1BLcpr9TrfaPX8YL6-13" value="" style="edgeStyle=orthogonalEdgeStyle;rounded=0;orthogonalLoop=1;jettySize=auto;entryX=0.5;entryY=1;entryDx=0;entryDy=0;endArrow=none;endFill=0;curved=1;html=1;" edge="1" parent="1" source="xoI1BLcpr9TrfaPX8YL6-12" target="xoI1BLcpr9TrfaPX8YL6-2">
          <mxGeometry relative="1" as="geometry" />
        </mxCell>
        <mxCell id="xoI1BLcpr9TrfaPX8YL6-16" value="n" style="edgeLabel;align=center;verticalAlign=middle;resizable=0;points=[];html=1;" vertex="1" connectable="0" parent="xoI1BLcpr9TrfaPX8YL6-13">
          <mxGeometry x="0.4109" y="1" relative="1" as="geometry">
            <mxPoint as="offset" />
          </mxGeometry>
        </mxCell>
        <mxCell id="xoI1BLcpr9TrfaPX8YL6-14" style="edgeStyle=orthogonalEdgeStyle;rounded=0;orthogonalLoop=1;jettySize=auto;html=1;endArrow=none;endFill=0;curved=1;" edge="1" parent="1" source="xoI1BLcpr9TrfaPX8YL6-12" target="xoI1BLcpr9TrfaPX8YL6-3">
          <mxGeometry relative="1" as="geometry" />
        </mxCell>
        <mxCell id="xoI1BLcpr9TrfaPX8YL6-17" value="m" style="edgeLabel;html=1;align=center;verticalAlign=middle;resizable=0;points=[];" vertex="1" connectable="0" parent="xoI1BLcpr9TrfaPX8YL6-14">
          <mxGeometry x="0.7459" y="1" relative="1" as="geometry">
            <mxPoint as="offset" />
          </mxGeometry>
        </mxCell>
        <mxCell id="xoI1BLcpr9TrfaPX8YL6-12" value="就职" style="rhombus;whiteSpace=wrap;html=1;" vertex="1" parent="1">
          <mxGeometry x="490" y="290" width="50" height="80" as="geometry" />
        </mxCell>
        <mxCell id="xoI1BLcpr9TrfaPX8YL6-20" value="学校名称" style="ellipse;whiteSpace=wrap;html=1;rounded=0;" vertex="1" parent="1">
          <mxGeometry x="70" y="60" width="60" height="35" as="geometry" />
        </mxCell>
        <mxCell id="xoI1BLcpr9TrfaPX8YL6-25" style="edgeStyle=orthogonalEdgeStyle;rounded=0;orthogonalLoop=1;jettySize=auto;html=1;entryX=0.5;entryY=0;entryDx=0;entryDy=0;strokeColor=default;align=center;verticalAlign=middle;fontFamily=Helvetica;fontSize=11;fontColor=default;labelBackgroundColor=default;endArrow=none;endFill=0;curved=1;" edge="1" parent="1" source="xoI1BLcpr9TrfaPX8YL6-22" target="xoI1BLcpr9TrfaPX8YL6-1">
          <mxGeometry relative="1" as="geometry" />
        </mxCell>
        <mxCell id="xoI1BLcpr9TrfaPX8YL6-22" value="省份" style="ellipse;whiteSpace=wrap;html=1;rounded=0;" vertex="1" parent="1">
          <mxGeometry x="150" y="50" width="60" height="35" as="geometry" />
        </mxCell>
        <mxCell id="xoI1BLcpr9TrfaPX8YL6-26" style="edgeStyle=orthogonalEdgeStyle;rounded=0;orthogonalLoop=1;jettySize=auto;html=1;strokeColor=default;align=center;verticalAlign=middle;fontFamily=Helvetica;fontSize=11;fontColor=default;labelBackgroundColor=default;endArrow=none;endFill=0;curved=1;" edge="1" parent="1" source="xoI1BLcpr9TrfaPX8YL6-23" target="xoI1BLcpr9TrfaPX8YL6-1">
          <mxGeometry relative="1" as="geometry" />
        </mxCell>
        <mxCell id="xoI1BLcpr9TrfaPX8YL6-23" value="城市" style="ellipse;whiteSpace=wrap;html=1;rounded=0;" vertex="1" parent="1">
          <mxGeometry x="230" y="50" width="60" height="35" as="geometry" />
        </mxCell>
        <mxCell id="xoI1BLcpr9TrfaPX8YL6-36" style="edgeStyle=orthogonalEdgeStyle;rounded=0;orthogonalLoop=1;jettySize=auto;html=1;strokeColor=default;align=center;verticalAlign=middle;fontFamily=Helvetica;fontSize=11;fontColor=default;labelBackgroundColor=default;endArrow=none;endFill=0;curved=1;" edge="1" parent="1" source="xoI1BLcpr9TrfaPX8YL6-27" target="xoI1BLcpr9TrfaPX8YL6-2">
          <mxGeometry relative="1" as="geometry" />
        </mxCell>
        <mxCell id="xoI1BLcpr9TrfaPX8YL6-27" value="PERSON_NAME" style="ellipse;whiteSpace=wrap;rounded=0;html=1;" vertex="1" parent="1">
          <mxGeometry x="320" y="120" width="105" height="40" as="geometry" />
        </mxCell>
        <mxCell id="xoI1BLcpr9TrfaPX8YL6-37" style="edgeStyle=orthogonalEdgeStyle;rounded=0;orthogonalLoop=1;jettySize=auto;html=1;entryX=0.5;entryY=0;entryDx=0;entryDy=0;strokeColor=default;align=center;verticalAlign=middle;fontFamily=Helvetica;fontSize=11;fontColor=default;labelBackgroundColor=default;endArrow=none;endFill=0;curved=1;" edge="1" parent="1" source="xoI1BLcpr9TrfaPX8YL6-29" target="xoI1BLcpr9TrfaPX8YL6-2">
          <mxGeometry relative="1" as="geometry" />
        </mxCell>
        <mxCell id="xoI1BLcpr9TrfaPX8YL6-29" value="POSITION" style="ellipse;whiteSpace=wrap;rounded=0;html=1;" vertex="1" parent="1">
          <mxGeometry x="390" y="20" width="70" height="40" as="geometry" />
        </mxCell>
        <mxCell id="xoI1BLcpr9TrfaPX8YL6-38" style="edgeStyle=orthogonalEdgeStyle;rounded=0;orthogonalLoop=1;jettySize=auto;html=1;strokeColor=default;align=center;verticalAlign=middle;fontFamily=Helvetica;fontSize=11;fontColor=default;labelBackgroundColor=default;endArrow=none;endFill=0;curved=1;" edge="1" parent="1" source="xoI1BLcpr9TrfaPX8YL6-30" target="xoI1BLcpr9TrfaPX8YL6-2">
          <mxGeometry relative="1" as="geometry" />
        </mxCell>
        <mxCell id="xoI1BLcpr9TrfaPX8YL6-30" value="SEX" style="ellipse;whiteSpace=wrap;rounded=0;html=1;" vertex="1" parent="1">
          <mxGeometry x="450" y="60" width="60" height="35" as="geometry" />
        </mxCell>
        <mxCell id="xoI1BLcpr9TrfaPX8YL6-39" style="edgeStyle=orthogonalEdgeStyle;rounded=0;orthogonalLoop=1;jettySize=auto;html=1;strokeColor=default;align=center;verticalAlign=middle;fontFamily=Helvetica;fontSize=11;fontColor=default;labelBackgroundColor=default;endArrow=none;endFill=0;curved=1;" edge="1" parent="1" source="xoI1BLcpr9TrfaPX8YL6-31" target="xoI1BLcpr9TrfaPX8YL6-2">
          <mxGeometry relative="1" as="geometry" />
        </mxCell>
        <mxCell id="xoI1BLcpr9TrfaPX8YL6-31" value="HIGH_DEGREE" style="ellipse;whiteSpace=wrap;rounded=0;html=1;" vertex="1" parent="1">
          <mxGeometry x="480" y="10" width="100" height="40" as="geometry" />
        </mxCell>
        <mxCell id="xoI1BLcpr9TrfaPX8YL6-40" style="edgeStyle=orthogonalEdgeStyle;rounded=0;orthogonalLoop=1;jettySize=auto;html=1;strokeColor=default;align=center;verticalAlign=middle;fontFamily=Helvetica;fontSize=11;fontColor=default;labelBackgroundColor=default;endArrow=none;endFill=0;curved=1;" edge="1" parent="1" source="xoI1BLcpr9TrfaPX8YL6-32" target="xoI1BLcpr9TrfaPX8YL6-2">
          <mxGeometry relative="1" as="geometry" />
        </mxCell>
        <mxCell id="xoI1BLcpr9TrfaPX8YL6-32" value="AGE" style="ellipse;whiteSpace=wrap;rounded=0;html=1;" vertex="1" parent="1">
          <mxGeometry x="590" y="25" width="60" height="35" as="geometry" />
        </mxCell>
        <mxCell id="xoI1BLcpr9TrfaPX8YL6-41" style="edgeStyle=orthogonalEdgeStyle;rounded=0;orthogonalLoop=1;jettySize=auto;html=1;strokeColor=default;align=center;verticalAlign=middle;fontFamily=Helvetica;fontSize=11;fontColor=default;labelBackgroundColor=default;endArrow=none;endFill=0;curved=1;" edge="1" parent="1" source="xoI1BLcpr9TrfaPX8YL6-33" target="xoI1BLcpr9TrfaPX8YL6-2">
          <mxGeometry relative="1" as="geometry" />
        </mxCell>
        <mxCell id="xoI1BLcpr9TrfaPX8YL6-33" value="RESUME" style="ellipse;whiteSpace=wrap;rounded=0;html=1;" vertex="1" parent="1">
          <mxGeometry x="590" y="95" width="60" height="35" as="geometry" />
        </mxCell>
        <mxCell id="xoI1BLcpr9TrfaPX8YL6-42" style="edgeStyle=orthogonalEdgeStyle;rounded=0;orthogonalLoop=1;jettySize=auto;html=1;strokeColor=default;align=center;verticalAlign=middle;fontFamily=Helvetica;fontSize=11;fontColor=default;labelBackgroundColor=default;endArrow=none;endFill=0;curved=1;" edge="1" parent="1" source="xoI1BLcpr9TrfaPX8YL6-34" target="xoI1BLcpr9TrfaPX8YL6-2">
          <mxGeometry relative="1" as="geometry" />
        </mxCell>
        <mxCell id="xoI1BLcpr9TrfaPX8YL6-34" value="INCUMBENT_TIME" style="ellipse;whiteSpace=wrap;rounded=0;html=1;" vertex="1" parent="1">
          <mxGeometry x="630" y="50" width="120" height="50" as="geometry" />
        </mxCell>
        <mxCell id="xoI1BLcpr9TrfaPX8YL6-49" style="edgeStyle=orthogonalEdgeStyle;rounded=0;orthogonalLoop=1;jettySize=auto;html=1;strokeColor=default;align=center;verticalAlign=middle;fontFamily=Helvetica;fontSize=11;fontColor=default;labelBackgroundColor=default;endArrow=none;endFill=0;curved=1;" edge="1" parent="1" source="xoI1BLcpr9TrfaPX8YL6-44" target="xoI1BLcpr9TrfaPX8YL6-3">
          <mxGeometry relative="1" as="geometry" />
        </mxCell>
        <mxCell id="xoI1BLcpr9TrfaPX8YL6-44" value="&lt;p class=&quot;MsoNormal&quot;&gt;&lt;span style=&quot;mso-spacerun:&#39;yes&#39;;font-family:宋体;mso-bidi-font-family:&#39;Times New Roman&#39;;&lt;br/&gt;font-size:12.0000pt;mso-font-kerning:1.0000pt;&quot;&gt;SECURITY_CODE&lt;/span&gt;&lt;/p&gt;" style="ellipse;whiteSpace=wrap;rounded=0;html=1;" vertex="1" parent="1">
          <mxGeometry x="207.5" y="480" width="105" height="40" as="geometry" />
        </mxCell>
        <mxCell id="xoI1BLcpr9TrfaPX8YL6-50" style="edgeStyle=orthogonalEdgeStyle;rounded=0;orthogonalLoop=1;jettySize=auto;html=1;strokeColor=default;align=center;verticalAlign=middle;fontFamily=Helvetica;fontSize=11;fontColor=default;labelBackgroundColor=default;endArrow=none;endFill=0;curved=1;" edge="1" parent="1" source="xoI1BLcpr9TrfaPX8YL6-45" target="xoI1BLcpr9TrfaPX8YL6-3">
          <mxGeometry relative="1" as="geometry" />
        </mxCell>
        <mxCell id="xoI1BLcpr9TrfaPX8YL6-45" value="&lt;p class=&quot;MsoNormal&quot;&gt;&lt;span style=&quot;mso-spacerun:&#39;yes&#39;;font-family:宋体;mso-bidi-font-family:&#39;Times New Roman&#39;;&lt;br/&gt;font-size:12.0000pt;mso-font-kerning:1.0000pt;&quot;&gt;ORG_CODE&lt;/span&gt;&lt;/p&gt;" style="ellipse;whiteSpace=wrap;rounded=0;html=1;" vertex="1" parent="1">
          <mxGeometry x="345" y="500" width="105" height="40" as="geometry" />
        </mxCell>
        <mxCell id="xoI1BLcpr9TrfaPX8YL6-51" style="edgeStyle=orthogonalEdgeStyle;rounded=0;orthogonalLoop=1;jettySize=auto;html=1;strokeColor=default;align=center;verticalAlign=middle;fontFamily=Helvetica;fontSize=11;fontColor=default;labelBackgroundColor=default;endArrow=none;endFill=0;curved=1;" edge="1" parent="1" source="xoI1BLcpr9TrfaPX8YL6-46" target="xoI1BLcpr9TrfaPX8YL6-3">
          <mxGeometry relative="1" as="geometry" />
        </mxCell>
        <mxCell id="xoI1BLcpr9TrfaPX8YL6-46" value="&lt;p class=&quot;MsoNormal&quot;&gt;&lt;span style=&quot;mso-spacerun:&#39;yes&#39;;font-family:宋体;mso-bidi-font-family:&#39;Times New Roman&#39;;&lt;br/&gt;font-size:12.0000pt;mso-font-kerning:1.0000pt;&quot;&gt;ORG_NAME&lt;/span&gt;&lt;/p&gt;" style="ellipse;whiteSpace=wrap;rounded=0;html=1;" vertex="1" parent="1">
          <mxGeometry x="427.5" y="550" width="105" height="40" as="geometry" />
        </mxCell>
        <mxCell id="xoI1BLcpr9TrfaPX8YL6-48" style="edgeStyle=orthogonalEdgeStyle;rounded=0;orthogonalLoop=1;jettySize=auto;html=1;strokeColor=default;align=center;verticalAlign=middle;fontFamily=Helvetica;fontSize=11;fontColor=default;labelBackgroundColor=default;endArrow=none;endFill=0;curved=1;" edge="1" parent="1" source="xoI1BLcpr9TrfaPX8YL6-47" target="xoI1BLcpr9TrfaPX8YL6-3">
          <mxGeometry relative="1" as="geometry" />
        </mxCell>
        <mxCell id="xoI1BLcpr9TrfaPX8YL6-47" value="&lt;p class=&quot;MsoNormal&quot;&gt;&lt;span style=&quot;mso-spacerun:&#39;yes&#39;;font-family:宋体;mso-bidi-font-family:&#39;Times New Roman&#39;;&lt;br/&gt;font-size:12.0000pt;mso-font-kerning:1.0000pt;&quot;&gt;SECUCODE&lt;/span&gt;&lt;/p&gt;" style="ellipse;whiteSpace=wrap;rounded=0;html=1;" vertex="1" parent="1">
          <mxGeometry x="250" y="560" width="105" height="40" as="geometry" />
        </mxCell>
        <mxCell id="xoI1BLcpr9TrfaPX8YL6-52" value="&lt;p class=&quot;MsoNormal&quot;&gt;&lt;span style=&quot;mso-spacerun:&#39;yes&#39;;font-family:宋体;mso-bidi-font-family:&#39;Times New Roman&#39;;&lt;br/&gt;font-size:12.0000pt;mso-font-kerning:1.0000pt;&quot;&gt;等等&lt;/span&gt;&lt;/p&gt;" style="ellipse;whiteSpace=wrap;rounded=0;html=1;" vertex="1" parent="1">
          <mxGeometry x="490" y="490" width="105" height="40" as="geometry" />
        </mxCell>
      </root>
    </mxGraphModel>
  </diagram>
</mxfile>
